<?xml version="1.0" encoding="UTF-8"?>
<svg xmlns="http://www.w3.org/2000/svg" viewBox="0 0 152.5 152.5">
  <defs>
    <style>
      .cls-1 {
        stroke: #000;
      }

      .cls-1, .cls-2 {
        fill: none;
      }

      .cls-1, .cls-2, .cls-3 {
        stroke-miterlimit: 10;
      }

      .cls-2 {
        stroke: #fff;
      }
    </style>
  </defs>
  <g id="Calque_2" data-name="Calque 2">
    <circle class="cls-3" cx="76.25" cy="76.25" r="75.75"/>
  </g>
  <g id="Calque_1" data-name="Calque 1">
    <line class="cls-2" x1="29.8" y1="29.82" x2="42.37" y2="29.82"/>
    <line class="cls-2" x1="26.62" y1="28.49" x2="117.41" y2="123.7"/>
    <line class="cls-2" x1="41.48" y1="29.82" x2="117.21" y2="111.18"/>
    <line class="cls-2" x1="117.41" y1="123.98" x2="115.64" y2="29.82"/>
    <line class="cls-2" x1="35.18" y1="36.43" x2="34.53" y2="122.03"/>
    <line class="cls-2" x1="110.61" y1="29.82" x2="120.67" y2="29.82"/>
    <line class="cls-1" x1="29.37" y1="122.61" x2="39.78" y2="122.43"/>
    <line class="cls-1" x1="43.93" y1="30.87" x2="35.37" y2="20.99"/>
    <line class="cls-1" x1="122.02" y1="124.28" x2="27.96" y2="122.61"/>
    <line class="cls-2" x1="29.59" y1="122.6" x2="39.47" y2="122.44"/>
    <line class="cls-2" x1="34.54" y1="121.42" x2="29.9" y2="122.52"/>
    <line class="cls-2" x1="39.47" y1="122.44" x2="34.86" y2="121.5"/>
    <line class="cls-2" x1="32.46" y1="121.97" x2="36.39" y2="121.97"/>
    <line class="cls-2" x1="110.61" y1="29.82" x2="115.64" y2="30.93"/>
    <line class="cls-2" x1="120.32" y1="29.89" x2="115.39" y2="30.87"/>
    <line class="cls-1" x1="110.26" y1="25.56" x2="110.26" y2="32.65"/>
    <line class="cls-1" x1="39.9" y1="126.22" x2="40.08" y2="118.46"/>
    <line class="cls-2" x1="115.28" y1="109.04" x2="117.21" y2="111.18"/>
    <line class="cls-2" x1="28.15" y1="28.66" x2="117.29" y2="122.24"/>
    <line class="cls-2" x1="42.37" y1="29.82" x2="117.14" y2="109.66"/>
    <line class="cls-2" x1="28.66" y1="29.82" x2="43.02" y2="29.82"/>
    <line class="cls-2" x1="34.42" y1="35.72" x2="33.78" y2="121.6"/>
    <line class="cls-2" x1="116.52" y1="30.64" x2="118.31" y2="123.69"/>
    <line class="cls-2" x1="28.66" y1="30.37" x2="42.37" y2="30.37"/>
    <line class="cls-1" x1="47.81" y1="28.55" x2="25.84" y2="28.83"/>
    <line class="cls-1" x1="23.63" y1="28.69" x2="43.02" y2="27.96"/>
    <line class="cls-1" x1="50.57" y1="36.93" x2="36.27" y2="22.35"/>
  </g>
</svg>